<svg xmlns="http://www.w3.org/2000/svg" viewBox="0 0 161.32 155.74" fill="#d4a574">
  <path d="M53.59,54.72c-5.85-10.44-11.7-20.87-17.55-31.31-1.38-2.46-2.77-4.92-4.41-7.84,4.33-2.67,8.51-5.24,12.99-8,.99,1.36,1.9,2.5,2.69,3.72,11.14,17.39,22.05,34.93,33.52,52.1,3.14,4.7,7.41,9.12,12.11,12.23,18.04,11.93,36.48,23.27,55.15,35.07-2.73,4.4-5.31,8.57-8.12,13.12-13.56-7.8-26.86-15.45-40.15-23.1-.27.27-.55.53-.82.8,7.63,13.31,15.26,26.62,23.15,40.39-4.51,2.57-8.65,4.94-13.34,7.62-7.93-13.7-15.73-27.16-23.53-40.63l-.81.13v46.72h-15.37v-45.17c-.45-.15-.9-.31-1.35-.46-7.57,13.05-15.15,26.09-22.91,39.47-4.45-2.54-8.59-4.9-13.35-7.61,7.79-13.58,15.42-26.87,23.05-40.16-.28-.27-.55-.54-.83-.81-13.15,7.57-26.3,15.14-39.82,22.92-2.59-4.48-4.98-8.62-7.69-13.32,13.46-7.83,26.72-15.53,39.98-23.24-.1-.35-.19-.71-.29-1.06H0v-15.7h45.43c.13-.37.25-.75.38-1.12-13.1-7.61-26.19-15.21-39.57-22.98,2.6-4.53,4.99-8.68,7.66-13.33,12.96,7.43,25.76,14.76,38.98,22.32.69.16.95.1,1.22.03-.16-.27-.33-.53-.49-.8h-.02Z"/>
  <path d="M110.41,42.75c3.96,4.96,8.84,6.6,14.73,6.51,11.93-.2,23.87-.06,36.18-.06v14.9c-14.88,0-29.84.92-44.62-.28-12.52-1.02-23.28-12.87-24.22-25.72-.92-12.54-.2-25.19-.2-38.1h15.47c0,7.4.04,14.48-.01,21.55-.03,4.32-.54,8.68-.16,12.96.24,2.7,1.71,5.29,2.84,8.24h-.01Z"/>
</svg>
